<?xml version="1.0" encoding="UTF-8" standalone="no"?>
<!-- Generator: Adobe Illustrator 16.0.4, SVG Export Plug-In . SVG Version: 6.00 Build 0)  -->
<!DOCTYPE svg  PUBLIC '-//W3C//DTD SVG 1.1//EN'  'http://www.w3.org/Graphics/SVG/1.1/DTD/svg11.dtd'>
<svg id="Layer_1" xmlns="http://www.w3.org/2000/svg" xml:space="preserve" height="74px" viewBox="-6 -6 74 74" width="74px" version="1.1" y="0px" x="0px" xmlns:xlink="http://www.w3.org/1999/xlink" enable-background="new -6 -6 74 74">
<g id="Sheet">
	<path id="bg" d="m2 0c-1 0-2 1-2 1.984v58.016c0 0.982 1 2 2 2s57 0 58 0 2-1 2-2 0-57 0-58-1-2-2-2-57 0-58 0z" fill="#0F9E59"/>
	<path id="side" d="m44 2v2c0 2.579-2.505 3.319-4 2-2.462-2.172-5.835-0.953-6 3 0.164 3.953 3.539 5.172 6 3 1.496-1.32 4-0.58 4 2v34c0 2.58 2.504 3.32 4 2 2.461-2.172 5.836-0.953 6 3-0.165 3.953-3.538 5.172-6 3-1.495-1.318-4-0.579-4 2v2h16v-58h-16zm13 30h-4v4h-2v-4h-4v-2h4v-4h2v4h4v2z" fill="#fff"/>
	<path id="icon_4_" d="m6 20v22h32v-22h-32zm10 19h-7v-4h7v4zm0-6h-7v-4h7v4zm0-6h-7v-4h7v4zm19 12h-16v-4h16v4zm0-6h-16v-4h16v4zm0-6h-16v-4h16v4z" fill="#E6F5EE"/>
</g>
</svg>
